<?xml version="1.0" encoding="utf-8"?>
<!-- Generator: Adobe Illustrator 23.0.0, SVG Export Plug-In . SVG Version: 6.00 Build 0)  -->
<svg version="1.1" id="Camada_1" xmlns="http://www.w3.org/2000/svg" xmlns:xlink="http://www.w3.org/1999/xlink" x="0px" y="0px"
	 viewBox="0 0 320 1440" style="enable-background:new 0 0 320 1440;" xml:space="preserve">
<style type="text/css">
	.st0{fill:#6BB9F0;}
</style>
<path class="st0" d="M96,0l10.7,17.1C117,34.3,139,69,138.7,103c0.3,34.1-21.7,68-21.4,103c-0.3,34,21.7,68,16,103
	C128,342.9,96,377,80,411c-16,34.7-16,69-10.7,103C75,548.6,85,583,112,617c27,34.4,69,69,64,103c-5,34.3-59,69-48,103
	c11,34.1,85,68,96,103c11,34-43,68-48,103c-5,33.9,37,68,26.7,102c-10.7,34.7-74.7,69-74.7,103c0,34.6,64,69,90.7,103
	c26.3,34.4,16.3,69,10.6,86l-5.3,17H0v-17.1c0-17.2,0-51.9,0-85.9c0-34.1,0-68,0-103c0-34,0-68,0-103c0-33.9,0-68,0-102
	c0-34.7,0-69,0-103c0-34.6,0-69,0-103c0-34.4,0-69,0-103c0-34.3,0-69,0-103c0-34.1,0-68,0-103c0-34,0-68,0-103c0-33.9,0-68,0-102
	c0-34.7,0-69,0-103c0-34.6,0-69,0-103c0-34.4,0-69,0-86V0H96z"/>
</svg>
