<?xml version="1.0" encoding="utf-8"?>
<!-- Generator: Adobe Illustrator 23.0.0, SVG Export Plug-In . SVG Version: 6.00 Build 0)  -->
<svg version="1.1" id="Camada_1" xmlns="http://www.w3.org/2000/svg" xmlns:xlink="http://www.w3.org/1999/xlink" x="0px" y="0px"
	 viewBox="0 0 320 1440" style="enable-background:new 0 0 320 1440;" xml:space="preserve">
<style type="text/css">
	.st0{fill:#0099FF;}
</style>
<path class="st0" d="M320,1440l-21.3-21.8C277,1396.4,235,1353,224,1309c-11-43.5,11-87,21.3-131c10.7-43.5,10.7-87-21.3-131
	c-32-43.4-96-87-96-131c0-43.3,64-87,69.3-131c5.7-43.2-48.3-87-48-130C149,610.9,203,567,208,524c5-44-37-88-80-131
	c-43-43.9-85-88-101.3-131c-15.7-43.8-5.7-87,0-131C32,87.3,32,44,32,22V0H0v21.8C0,43.6,0,87,0,131c0,43.5,0,87,0,131
	c0,43.5,0,87,0,131c0,43.4,0,87,0,131c0,43.3,0,87,0,131c0,43.2,0,87,0,130c0,44.1,0,88,0,131c0,44,0,88,0,131c0,43.9,0,88,0,131
	c0,43.8,0,87,0,131c0,43.7,0,87,0,109v22H320z"/>
</svg>
