<svg xmlns="http://www.w3.org/2000/svg" viewBox="0 0 1440 320">
<path fill="#0099ff" fill-opacity="1" d="M0,320L21.8,298.7C43.6,277,87,235,131,224C174.5,213,218,235,262,245.3C305.5,256,349,256,393,224C436.4,192,480,128,524,128C567.3,128,611,192,655,197.3C698.2,203,742,149,785,149.3C829.1,149,873,203,916,208C960,213,1004,171,1047,128C1090.9,85,1135,43,1178,26.7C1221.8,11,1265,21,1309,26.7C1352.7,32,1396,32,1418,32L1440,32L1440,0L1418.2,0C1396.4,0,1353,0,1309,0C1265.5,0,1222,0,1178,0C1134.5,0,1091,0,1047,0C1003.6,0,960,0,916,0C872.7,0,829,0,785,0C741.8,0,698,0,655,0C610.9,0,567,0,524,0C480,0,436,0,393,0C349.1,0,305,0,262,0C218.2,0,175,0,131,0C87.3,0,44,0,22,0L0,0Z"></path>
</svg>